<mxfile host="app.diagrams.net" modified="2020-11-14T01:10:14.242Z" agent="5.0 (Windows NT 10.0; Win64; x64) AppleWebKit/537.36 (KHTML, like Gecko) Chrome/86.0.4240.193 Safari/537.36" etag="IPnZ4Xaxt4JF-SZT9B-Z" version="13.9.8" type="github">
  <diagram id="C5RBs43oDa-KdzZeNtuy" name="Page-1">
    <mxGraphModel dx="868" dy="520" grid="1" gridSize="10" guides="1" tooltips="1" connect="1" arrows="1" fold="1" page="1" pageScale="1" pageWidth="827" pageHeight="1169" math="0" shadow="0">
      <root>
        <mxCell id="WIyWlLk6GJQsqaUBKTNV-0" />
        <mxCell id="WIyWlLk6GJQsqaUBKTNV-1" parent="WIyWlLk6GJQsqaUBKTNV-0" />
        <mxCell id="nkLj3dZwLixB2pfgYJTC-7" value="" style="edgeStyle=orthogonalEdgeStyle;rounded=0;orthogonalLoop=1;jettySize=auto;html=1;" edge="1" parent="WIyWlLk6GJQsqaUBKTNV-1" source="nkLj3dZwLixB2pfgYJTC-2" target="nkLj3dZwLixB2pfgYJTC-6">
          <mxGeometry relative="1" as="geometry" />
        </mxCell>
        <mxCell id="nkLj3dZwLixB2pfgYJTC-2" value="float phi=3.14&lt;br&gt;integer r&lt;br&gt;float luas" style="rounded=0;whiteSpace=wrap;html=1;" vertex="1" parent="WIyWlLk6GJQsqaUBKTNV-1">
          <mxGeometry x="367" y="160" width="94" height="70" as="geometry" />
        </mxCell>
        <mxCell id="nkLj3dZwLixB2pfgYJTC-5" value="" style="edgeStyle=orthogonalEdgeStyle;rounded=0;orthogonalLoop=1;jettySize=auto;html=1;" edge="1" parent="WIyWlLk6GJQsqaUBKTNV-1" source="nkLj3dZwLixB2pfgYJTC-4" target="nkLj3dZwLixB2pfgYJTC-2">
          <mxGeometry relative="1" as="geometry" />
        </mxCell>
        <mxCell id="nkLj3dZwLixB2pfgYJTC-4" value="Mulai" style="rounded=1;whiteSpace=wrap;html=1;" vertex="1" parent="WIyWlLk6GJQsqaUBKTNV-1">
          <mxGeometry x="379" y="80" width="70" height="50" as="geometry" />
        </mxCell>
        <mxCell id="nkLj3dZwLixB2pfgYJTC-9" value="" style="edgeStyle=orthogonalEdgeStyle;rounded=0;orthogonalLoop=1;jettySize=auto;html=1;" edge="1" parent="WIyWlLk6GJQsqaUBKTNV-1" source="nkLj3dZwLixB2pfgYJTC-6" target="nkLj3dZwLixB2pfgYJTC-8">
          <mxGeometry relative="1" as="geometry" />
        </mxCell>
        <mxCell id="nkLj3dZwLixB2pfgYJTC-6" value="Masukan Jari-Jari" style="shape=parallelogram;perimeter=parallelogramPerimeter;whiteSpace=wrap;html=1;fixedSize=1;rounded=0;" vertex="1" parent="WIyWlLk6GJQsqaUBKTNV-1">
          <mxGeometry x="343.5" y="270" width="141" height="30" as="geometry" />
        </mxCell>
        <mxCell id="nkLj3dZwLixB2pfgYJTC-12" value="" style="edgeStyle=orthogonalEdgeStyle;rounded=0;orthogonalLoop=1;jettySize=auto;html=1;" edge="1" parent="WIyWlLk6GJQsqaUBKTNV-1" source="nkLj3dZwLixB2pfgYJTC-8" target="nkLj3dZwLixB2pfgYJTC-11">
          <mxGeometry relative="1" as="geometry" />
        </mxCell>
        <mxCell id="nkLj3dZwLixB2pfgYJTC-8" value="Luas=phi*r*r" style="whiteSpace=wrap;html=1;rounded=0;" vertex="1" parent="WIyWlLk6GJQsqaUBKTNV-1">
          <mxGeometry x="371.75" y="340" width="84.5" height="30" as="geometry" />
        </mxCell>
        <mxCell id="nkLj3dZwLixB2pfgYJTC-20" value="" style="edgeStyle=orthogonalEdgeStyle;rounded=0;orthogonalLoop=1;jettySize=auto;html=1;" edge="1" parent="WIyWlLk6GJQsqaUBKTNV-1" source="nkLj3dZwLixB2pfgYJTC-11" target="nkLj3dZwLixB2pfgYJTC-19">
          <mxGeometry relative="1" as="geometry" />
        </mxCell>
        <mxCell id="nkLj3dZwLixB2pfgYJTC-11" value="Tampilkan Luas Lingkaran&amp;nbsp;" style="shape=parallelogram;perimeter=parallelogramPerimeter;whiteSpace=wrap;html=1;fixedSize=1;rounded=0;" vertex="1" parent="WIyWlLk6GJQsqaUBKTNV-1">
          <mxGeometry x="322" y="410" width="184" height="30" as="geometry" />
        </mxCell>
        <mxCell id="nkLj3dZwLixB2pfgYJTC-19" value="Selesai" style="rounded=1;whiteSpace=wrap;html=1;" vertex="1" parent="WIyWlLk6GJQsqaUBKTNV-1">
          <mxGeometry x="379" y="480" width="70" height="40" as="geometry" />
        </mxCell>
      </root>
    </mxGraphModel>
  </diagram>
</mxfile>
